<?xml version="1.0" encoding="iso-8859-1"?>
<!-- Generator: Adobe Illustrator 16.0.0, SVG Export Plug-In . SVG Version: 6.00 Build 0)  -->
<!DOCTYPE svg PUBLIC "-//W3C//DTD SVG 1.1//EN" "http://www.w3.org/Graphics/SVG/1.1/DTD/svg11.dtd">
<svg xmlns="http://www.w3.org/2000/svg" xmlns:xlink="http://www.w3.org/1999/xlink" version="1.1" id="Capa_1" x="0px" y="0px" width="512px" height="512px" viewBox="0 0 400 400" style="enable-background:new 0 0 400 400;" xml:space="preserve">
<g>
	<path d="M397.254,371.765l-96.002-171.764l96.856-173.295c2.938-5.251,2.128-11.802-1.999-16.182   c-4.131-4.383-10.621-5.585-16.037-2.955L7.786,187.587C3.026,189.889,0,194.713,0,200.001c0,5.289,3.026,10.111,7.786,12.412   L380.072,392.44c1.915,0.926,3.965,1.372,5.998,1.372c0.044,0,0.078-0.003,0.142,0c7.614,0,13.788-6.174,13.788-13.787   C400,376.929,398.977,374.067,397.254,371.765z M45.461,200.001L352.697,51.435l-79.274,141.841c-2.339,4.178-2.339,9.271,0,13.451   l79.274,141.846L45.461,200.001z" fill="#FFFFFF"/>
</g>
<g>
</g>
<g>
</g>
<g>
</g>
<g>
</g>
<g>
</g>
<g>
</g>
<g>
</g>
<g>
</g>
<g>
</g>
<g>
</g>
<g>
</g>
<g>
</g>
<g>
</g>
<g>
</g>
<g>
</g>
</svg>
